<?xml version="1.0" encoding="UTF-8" standalone="no"?>
<!-- Created with Inkscape (http://www.inkscape.org/) -->

<svg
   xmlns:dc="http://purl.org/dc/elements/1.1/"
   xmlns:cc="http://creativecommons.org/ns#"
   xmlns:rdf="http://www.w3.org/1999/02/22-rdf-syntax-ns#"
   xmlns:svg="http://www.w3.org/2000/svg"
   xmlns="http://www.w3.org/2000/svg"
   xmlns:sodipodi="http://sodipodi.sourceforge.net/DTD/sodipodi-0.dtd"
   xmlns:inkscape="http://www.inkscape.org/namespaces/inkscape"
   id="svg3597"
   version="1.1"
   inkscape:version="0.91 r13725"
   width="175"
   height="187.5"
   viewBox="0 0 175 187.5"
   sodipodi:docname="logo_alt.svg">
  <metadata
     id="metadata3603">
    <rdf:RDF>
      <cc:Work
         rdf:about="">
        <dc:format>image/svg+xml</dc:format>
        <dc:type
           rdf:resource="http://purl.org/dc/dcmitype/StillImage" />
        <dc:title></dc:title>
      </cc:Work>
    </rdf:RDF>
  </metadata>
  <defs
     id="defs3601" />
  <sodipodi:namedview
     pagecolor="#ffffff"
     bordercolor="#666666"
     borderopacity="1"
     objecttolerance="10"
     gridtolerance="10"
     guidetolerance="10"
     inkscape:pageopacity="0"
     inkscape:pageshadow="2"
     inkscape:window-width="1280"
     inkscape:window-height="991"
     id="namedview3599"
     showgrid="false"
     inkscape:zoom="1.2586667"
     inkscape:cx="87.5"
     inkscape:cy="93.75"
     inkscape:window-x="1920"
     inkscape:window-y="0"
     inkscape:window-maximized="1"
     inkscape:current-layer="svg3597" />
  <path
     style="fill:#000000"
     d="m 35.240284,184.6875 c 1.25894,-4.09686 11.67038,-23.70021 13.902,-26.17559 1.74886,-1.93991 0.83981,-2.89237 -11.09156,-11.62126 -17.94195,-13.12616 -25.19671,-22.67749 -29.2124999,-38.46005 -1.61475,-6.34614 -2.53829,-11.931547 -2.05232,-12.41202 0.48597,-0.480474 4.4736999,-1.449452 8.8616199,-2.153286 4.38792,-0.703834 8.09954,-1.439582 8.24804,-1.634995 0.1485,-0.195415 4.93818,-15.824049 10.64372,-34.730299 5.70555,-18.90625 10.89253,-35.395694 11.52664,-36.643209 1.66895,-3.283442 3.37273,-1.361011 8.97207,10.123503 l 4.83358,9.913902 8.27396,-2.920734 c 11.67597,-4.121652 28.66066,-4.10785 40.391856,0.03283 l 8.36789,2.953557 12.84602,-11.078507 c 7.06531,-6.093178 13.26958,-10.654952 13.78725,-10.137275 0.51768,0.517678 1.79568,13.583915 2.84,29.036085 1.04433,15.452169 2.26385,32.199159 2.71004,37.215534 l 0.81127,9.120681 8.40869,-0.828571 c 4.80953,-0.473919 8.71565,-0.331882 9.12585,0.331836 1.21031,1.958329 -5.04004,24.214238 -7.60216,27.069358 -1.3257,1.4773 -3.68665,5.39135 -5.24656,8.69786 -1.5599,3.30652 -7.04837,10.33777 -12.19658,15.625 l -9.36037,9.61315 0.62386,7.01676 c 0.34312,3.85923 1.71405,9.48423 3.04649,12.5 1.33245,3.01579 2.80972,7.03011 3.28284,8.92074 l 0.86019,3.4375 -53.233036,0 -53.23305,0 0.86426,-2.8125 z m 68.568086,-41.03341 c 4.49352,-5.34024 4.47755,-12.49613 -0.0358,-16.04633 -4.161646,-3.27356 -6.514236,-1.99683 -3.07208,1.66718 4.97419,5.29477 2.64272,14.47506 -3.676166,14.47506 -3.00102,0 -3.82154,-0.63591 -4.43542,-3.4375 -1.27211,-5.8056 -1.73347,-6.74771 -2.93941,-6.00239 -0.63946,0.3952 -1.53843,2.42945 -1.99771,4.52053 -0.7857,3.57726 -1.14233,3.77958 -6.03367,3.42317 -4.91201,-0.35792 -5.221,-0.61335 -5.6046,-4.63282 -0.27062,-2.8356 0.45484,-5.41834 2.17574,-7.74599 3.64693,-4.93273 0.6397,-6.46333 -3.22044,-1.63914 -6.38444,7.97893 -2.11247,18.01414 7.66857,18.01414 2.83641,0 5.74345,-0.58634 6.46009,-1.30298 0.90396,-0.90397 1.79296,-0.71257 2.90305,0.625 2.70362,3.25767 8.204736,2.36413 11.807846,-1.91793 z M 74.587124,110.60296 c 6.1495,-3.18004 6.20771,-9.26374 0.1184,-12.373644 -8.09105,-4.132215 -18.83078,-3.309558 -23.97696,1.836614 -8.80877,8.80877 10.61328,17.38643 23.85856,10.53703 z m 47.283346,2.36934 c 4.50152,-0.9003 10.17402,-5.69371 10.17402,-8.5973 0,-3.07527 -5.8318,-7.768317 -10.81495,-8.703161 -6.46984,-1.213752 -13.54302,0.321467 -17.23181,3.74013 -4.049076,3.752551 -4.042956,6.179181 0.0251,9.949321 4.25004,3.9388 10.19482,5.14158 17.84765,3.61101 z M 76.008564,89.181265 c 2.83648,-2.566981 2.90601,-5.174235 0.21719,-8.145339 -2.56698,-2.836482 -5.17423,-2.906004 -8.14534,-0.217191 -2.83648,2.566981 -2.906,5.174235 -0.21719,8.145339 2.56698,2.836482 5.17424,2.906003 8.14534,0.217191 z M 114.54449,88.75 c 1.375,-1.375 2.5,-3.0625 2.5,-3.75 0,-0.6875 -1.125,-2.375 -2.5,-3.75 -1.375,-1.375 -3.0625,-2.5 -3.75,-2.5 -0.6875,0 -2.375,1.125 -3.75,2.5 -1.375,1.375 -2.5,3.0625 -2.5,3.75 0,0.6875 1.125,2.375 2.5,3.75 1.375,1.375 3.0625,2.5 3.75,2.5 0.6875,0 2.375,-1.125 3.75,-2.5 z M 94.544494,72.5 c 1.375,-1.375 2.5,-3.0625 2.5,-3.75 0,-1.621169 -4.62883,-6.25 -6.25,-6.25 -1.62117,0 -6.25,4.628831 -6.25,6.25 0,1.621169 4.62883,6.25 6.25,6.25 0.6875,0 2.375,-1.125 3.75,-2.5 z"
     id="path3607"
     inkscape:connector-curvature="0" />
  <path
     style="fill:#ffffff"
     d="m 109.45757,112.17945 c -3.48254,-1.2968 -7.31858,-4.65651 -7.91329,-6.93069 -0.24491,-0.93656 0.40788,-2.49027 1.68297,-4.00563 6.14426,-7.302046 20.43243,-7.262463 26.60541,0.0737 2.03209,2.415 2.08244,2.67045 0.95582,4.8491 -2.83121,5.47494 -14.183,8.67518 -21.33091,6.01351 z"
     id="path3609"
     inkscape:connector-curvature="0" />
  <path
     style="fill:#ffffff"
     d="m 54.942081,110.71239 c -1.924132,-0.98318 -4.179004,-2.72281 -5.010825,-3.86585 -1.41913,-1.95007 -1.433238,-2.23133 -0.228763,-4.56053 1.956263,-3.782994 6.877184,-5.960261 13.565515,-6.002078 6.502729,-0.04066 10.574323,1.186096 13.436614,4.048388 5.656163,5.65616 -1.520074,12.16768 -13.409799,12.16768 -3.46788,0 -5.853503,-0.51056 -8.352742,-1.78761 z"
     id="path3611"
     inkscape:connector-curvature="0" />
  <path
     style="fill:#ffffff"
     d="m 68.971484,89.28996 c -3.226773,-2.930842 -3.403916,-5.032723 -0.655759,-7.78088 2.975484,-2.975485 4.397155,-2.986226 7.328017,-0.05536 2.790206,2.790207 2.895385,4.109141 0.534754,6.705783 -2.662585,2.928784 -4.849452,3.271806 -7.207012,1.130461 z"
     id="path3613"
     inkscape:connector-curvature="0" />
  <path
     style="fill:#ffffff"
     d="m 87.251397,72.136081 c -1.17418,-1.225578 -2.134872,-2.767535 -2.134872,-3.426569 0,-1.481086 4.055041,-5.467987 5.561441,-5.467987 1.5064,0 5.561441,3.986901 5.561441,5.467987 0,1.627303 -3.961031,5.654895 -5.561441,5.654895 -0.710434,0 -2.25239,-1.002746 -3.426569,-2.228326 z"
     id="path3615"
     inkscape:connector-curvature="0" />
  <path
     style="fill:#ffffff"
     d="m 107.79649,88.591126 c -1.54972,-1.360674 -2.81768,-2.903064 -2.81768,-3.427534 0,-0.52447 1.25114,-2.166227 2.7803,-3.648351 l 2.7803,-2.694769 2.106,1.572358 c 1.1583,0.864797 2.59486,2.308623 3.19236,3.208502 0.95234,1.434305 0.88101,1.8972 -0.57821,3.752301 -2.9795,3.787817 -4.3076,4.008036 -7.46307,1.237493 z"
     id="path3617"
     inkscape:connector-curvature="0" />
  <path
     style="fill:#ffffff"
     d="m 94.650424,146.89399 c -0.655456,-0.24101 -1.794983,-0.96295 -2.532283,-1.60432 -1.113342,-0.96848 -1.83625,-1.00252 -4.265291,-0.20087 -1.60861,0.53089 -4.568296,0.78001 -6.57708,0.55359 -2.923584,-0.32953 -4.191443,-0.99994 -6.354226,-3.35995 -2.465583,-2.69042 -2.66954,-3.28497 -2.331985,-6.79797 0.393948,-4.0999 3.69314,-9.47811 5.814221,-9.47811 1.559913,0 1.431355,0.65653 -0.855649,4.3697 -2.029882,3.29571 -2.607304,8.48031 -1.193515,10.71643 0.530299,0.83875 2.187318,1.18521 5.699727,1.19174 l 4.95207,0.009 1.180772,-3.77383 c 0.649425,-2.07561 1.465537,-3.77384 1.813583,-3.77384 0.348045,0 1.204309,1.96589 1.902808,4.36864 0.985472,3.38991 1.689577,4.47395 3.14282,4.83869 7.108284,1.78406 11.105944,-7.29828 6.317934,-14.3538 -2.227788,-3.28284 -2.132506,-4.17334 0.30686,-2.86783 7.05547,3.77597 6.08505,15.28833 -1.62006,19.21918 -3.103898,1.5835 -3.480717,1.64931 -5.400706,0.94335 z"
     id="path3621"
     inkscape:connector-curvature="0" />
</svg>
