<?xml version="1.0" encoding="UTF-8" standalone="no"?>
<!-- Created with Inkscape (http://www.inkscape.org/) -->

<svg
   xmlns:dc="http://purl.org/dc/elements/1.1/"
   xmlns:cc="http://creativecommons.org/ns#"
   xmlns:rdf="http://www.w3.org/1999/02/22-rdf-syntax-ns#"
   xmlns:svg="http://www.w3.org/2000/svg"
   xmlns="http://www.w3.org/2000/svg"
   xmlns:sodipodi="http://sodipodi.sourceforge.net/DTD/sodipodi-0.dtd"
   xmlns:inkscape="http://www.inkscape.org/namespaces/inkscape"
   id="svg3513"
   version="1.1"
   inkscape:version="0.91 r13725"
   width="175"
   height="187.5"
   viewBox="0 0 175 187.5"
   sodipodi:docname="logo.svg">
  <metadata
     id="metadata3519">
    <rdf:RDF>
      <cc:Work
         rdf:about="">
        <dc:format>image/svg+xml</dc:format>
        <dc:type
           rdf:resource="http://purl.org/dc/dcmitype/StillImage" />
        <dc:title></dc:title>
      </cc:Work>
    </rdf:RDF>
  </metadata>
  <defs
     id="defs3517" />
  <sodipodi:namedview
     pagecolor="#ffffff"
     bordercolor="#666666"
     borderopacity="1"
     objecttolerance="10"
     gridtolerance="10"
     guidetolerance="10"
     inkscape:pageopacity="0"
     inkscape:pageshadow="2"
     inkscape:window-width="1280"
     inkscape:window-height="991"
     id="namedview3515"
     showgrid="false"
     inkscape:zoom="1.2586667"
     inkscape:cx="87.5"
     inkscape:cy="93.75"
     inkscape:window-x="1920"
     inkscape:window-y="0"
     inkscape:window-maximized="1"
     inkscape:current-layer="svg3513" />
  <path
     style="fill:#000000"
     d="M 35.24029,184.6875 C 36.49923,180.59064 46.91067,160.98729 49.14228,158.51191 50.89115,156.572 49.9821,155.61954 38.05072,146.89065 20.10877,133.76449 12.85402,124.21316 8.8382202,108.4306 7.2234802,102.08446 6.2999402,96.499053 6.7859102,96.01858 7.2718802,95.538106 11.25961,94.569128 15.64753,93.865294 20.03545,93.16146 23.74706,92.425712 23.89557,92.230299 24.04407,92.034884 28.83374,76.40625 34.53929,57.5 40.24483,38.59375 45.43182,22.104306 46.06592,20.856791 47.73488,17.573349 49.43865,19.49578 55.038,30.980294 l 4.83357,9.913902 8.27396,-2.920734 c 11.67597,-4.121652 28.66067,-4.10785 40.39186,0.03283 l 8.36789,2.953557 12.84602,-11.078507 c 7.06531,-6.093178 13.26958,-10.654952 13.78725,-10.137275 0.51768,0.517678 1.79568,13.583915 2.84,29.036085 1.04433,15.452169 2.26385,32.199159 2.71004,37.215534 l 0.81127,9.120681 8.40869,-0.828571 c 4.80953,-0.473919 8.71565,-0.331882 9.12585,0.331836 1.21031,1.958329 -5.04004,24.214238 -7.60216,27.069358 -1.3257,1.4773 -3.68665,5.39135 -5.24656,8.69787 -1.5599,3.30652 -7.04837,10.33777 -12.19658,15.625 l -9.36037,9.61315 0.62386,7.01676 c 0.34312,3.85923 1.71405,9.48423 3.04649,12.5 1.33245,3.01579 2.80972,7.03011 3.28284,8.92074 l 0.86019,3.4375 -53.23304,0 -53.23305,0 0.86427,-2.8125 z m 68.72908,-51.62696 c 4.09756,-1.0667 7.85048,-2.33894 8.33981,-2.82719 0.48932,-0.48825 -0.0712,-3.55995 -1.24571,-6.826 -1.57605,-4.38281 -2.62766,-5.73278 -4.01469,-5.15375 -8.13614,3.39652 -19.72067,3.84144 -25.73317,0.98832 -7.04767,-3.34433 -9.89612,-9.42252 -9.89612,-21.11692 0,-8.217579 0.50482,-10.81179 2.83221,-14.554423 5.05496,-8.128815 14.68746,-10.51415 27.2233,-6.741417 3.34281,1.006037 6.13843,1.709162 6.21249,1.5625 0.0741,-0.146663 1.08222,-2.76623 2.24037,-5.821261 2.44912,-6.460464 2.33731,-6.598349 -7.79309,-9.609988 -17.82164,-5.298146 -37.08234,2.549413 -44.04155,17.944245 -5.31009,11.746728 -4.08018,30.345964 2.68081,40.540584 7.82894,11.80492 24.8673,16.38657 43.19534,11.6153 z"
     id="path3523"
     inkscape:connector-curvature="0" />
  <path
     style="fill:#ffffff"
     d="m 81.938559,133.88948 c -9.250015,-1.63667 -18.649361,-7.98402 -22.237162,-15.01669 -4.405874,-8.63623 -5.705894,-23.499383 -2.88535,-32.988256 5.731818,-19.282979 26.675379,-28.810655 47.765523,-21.729562 4.78327,1.606 5.59453,2.151401 5.79795,3.897871 0.28422,2.440274 -2.58868,9.48953 -3.86743,9.48953 -0.49867,0 -3.1034,-0.579363 -5.7883,-1.287474 -13.118293,-3.4598 -22.939423,-0.332695 -27.748056,8.835143 -2.246124,4.282318 -2.438981,18.566898 -0.33333,24.689278 3.481486,10.12276 14.603868,13.86346 30.099956,10.12328 4.77794,-1.15322 5.63755,-1.1805 6.25925,-0.19862 1.33957,2.1156 3.27777,8.7376 2.86912,9.80254 -0.59578,1.55256 -12.143118,4.43144 -19.331857,4.81965 -3.426835,0.18506 -8.196977,-0.0115 -10.600314,-0.43669 z"
     id="path3525"
     inkscape:connector-curvature="0" />
</svg>
