<?xml version="1.0" encoding="UTF-8" standalone="no"?>
<!-- Created with Inkscape (http://www.inkscape.org/) -->

<svg
   xmlns:dc="http://purl.org/dc/elements/1.1/"
   xmlns:cc="http://creativecommons.org/ns#"
   xmlns:rdf="http://www.w3.org/1999/02/22-rdf-syntax-ns#"
   xmlns:svg="http://www.w3.org/2000/svg"
   xmlns="http://www.w3.org/2000/svg"
   xmlns:sodipodi="http://sodipodi.sourceforge.net/DTD/sodipodi-0.dtd"
   xmlns:inkscape="http://www.inkscape.org/namespaces/inkscape"
   id="svg3693"
   version="1.1"
   inkscape:version="0.91 r13725"
   width="713.35876"
   height="175.8678"
   viewBox="0 0 713.35878 175.8678"
   sodipodi:docname="logo_full.svg">
  <metadata
     id="metadata3699">
    <rdf:RDF>
      <cc:Work
         rdf:about="">
        <dc:format>image/svg+xml</dc:format>
        <dc:type
           rdf:resource="http://purl.org/dc/dcmitype/StillImage" />
        <dc:title></dc:title>
      </cc:Work>
    </rdf:RDF>
  </metadata>
  <defs
     id="defs3697" />
  <sodipodi:namedview
     pagecolor="#ffffff"
     bordercolor="#666666"
     borderopacity="1"
     objecttolerance="10"
     gridtolerance="10"
     guidetolerance="10"
     inkscape:pageopacity="0"
     inkscape:pageshadow="2"
     inkscape:window-width="1280"
     inkscape:window-height="991"
     id="namedview3695"
     showgrid="false"
     inkscape:zoom="2.2401143"
     inkscape:cx="104.75608"
     inkscape:cy="15.306642"
     inkscape:window-x="1920"
     inkscape:window-y="0"
     inkscape:window-maximized="1"
     inkscape:current-layer="svg3693" />
  <path
     style="fill:#000000"
     d="m 24.106877,143.59203 c 0,-1.44036 5.41072,-12.56699 7.66124,-15.75464 l 2.34626,-3.32323 -3.59663,-2.92677 c -1.97815,-1.60972 -5.06461,-3.98319 -6.8588,-5.27438 -10.571694,-7.60788 -14.2053239,-13.6386 -17.4142839,-28.902386 -0.14454,-0.6875 2.25918,-1.85785 5.3415899,-2.600778 6.312674,-1.521491 5.128314,0.963659 14.526784,-30.481667 2.35605,-7.882845 4.79313,-14.841845 5.41573,-15.464446 0.676,-0.676001 2.46518,1.49891 4.44157,5.399127 3.0671,6.052635 3.55508,6.460709 6.66056,5.569944 4.33801,-1.244304 26.10966,-1.245855 30.44061,-0.0021 2.86407,0.822451 4.4625,0.02456 11.22482,-5.603095 l 7.88517,-6.562111 0.8691,4.247597 c 0.47801,2.336135 1.20613,9.591304 1.61806,16.122554 0.41193,6.53125 1.06813,15.454267 1.45823,19.828929 l 0.70926,7.953929 4.809923,-0.769137 c 2.85049,-0.455811 5.14025,-0.234646 5.62081,0.542905 1.12973,1.827945 -1.86413,13.665473 -4.41165,17.443375 -1.15899,1.71875 -3.701893,5.55009 -5.650883,8.51409 -1.949,2.964 -5.13075,6.72456 -7.07055,8.3568 -4.10817,3.45679 -4.68402,9.1901 -1.65192,16.4469 3.49705,8.36964 5.22038,7.9322 -31.25,7.9322 -18.21875,0 -33.125,-0.31211 -33.125,-0.69358 z m 43.65927,-27.59998 c 1.4249,-1.81147 2.59073,-4.23022 2.59073,-5.375 0,-2.52336 -2.37325,-5.08143 -4.71429,-5.08143 -1.34632,0 -1.29266,0.42163 0.25,1.96429 2.40948,2.40947 2.4806,4.35179 0.27005,7.3749 -2.1067,2.88107 -5.80576,1.73425 -5.80576,-1.79996 0,-3.26884 -2.01042,-3.2964 -2.86219,-0.0392 -0.44178,1.68935 -1.70502,2.5 -3.89579,2.5 -2.71745,-3e-5 -3.24202,-0.56634 -3.24202,-3.50003 0,-1.925 0.66562,-4.16562 1.47916,-4.97917 0.81355,-0.81354 1.0488,-1.90953 0.5228,-2.43553 -1.45421,-1.45421 -4.50196,3.4543 -4.50196,7.25056 0,4.61861 2.83515,6.63971 8.11267,5.78328 2.38784,-0.38749 4.66627,-0.17907 5.06319,0.46316 1.30263,2.10771 4.09733,1.22536 6.73341,-2.12587 z M 49.628887,95.140503 c 5.69399,-4.163548 -1.90158,-10.961024 -9.96475,-8.917715 -6.23198,1.579263 -8.09903,4.563593 -4.99848,7.989666 2.72701,3.013317 11.3777,3.54985 14.96323,0.928049 z m 33.7637,-0.319165 c 5.907,-5.906994 -4.52498,-11.970789 -13.53313,-7.866401 -4.25461,1.938531 -4.91883,4.414438 -1.97423,7.359038 3.10165,3.101652 12.60224,3.412488 15.50736,0.507363 z M 50.343667,81.176543 c 2.07699,-2.502624 0.69348,-5.640919 -2.48679,-5.640919 -2.83596,0 -4.41984,2.701456 -3.29797,5.625 0.92084,2.399661 3.79985,2.407584 5.78476,0.01591 z m 24.78838,-1.596776 c 0.51269,-3.594141 -3.0216,-5.083426 -5.70222,-2.402809 -1.65976,1.659755 -1.71366,2.307965 -0.33053,3.974541 2.24944,2.710409 5.54437,1.85197 6.03275,-1.571732 z m -14.25241,-7.302879 c 1.08748,-0.417305 1.97724,-2.104805 1.97724,-3.75 0,-2.321685 -0.66958,-2.991264 -2.99127,-2.991264 -3.44803,0 -5.21502,3.267821 -3.12724,5.783435 1.64218,1.978716 1.54154,1.955439 4.14127,0.957829 z"
     id="path3703"
     inkscape:connector-curvature="0" />
  <flowRoot
     xml:space="preserve"
     id="flowRoot3707"
     style="font-style:normal;font-weight:normal;font-size:40px;line-height:125%;font-family:sans-serif;letter-spacing:0px;word-spacing:0px;fill:#000000;fill-opacity:1;stroke:none;stroke-width:1px;stroke-linecap:butt;stroke-linejoin:miter;stroke-opacity:1"><flowRegion
       id="flowRegion3709"><rect
         id="rect3711"
         width="262.93301"
         height="52.229477"
         x="96.870056"
         y="59.381535" /></flowRegion><flowPara
       id="flowPara3713"></flowPara></flowRoot>  <text
     xml:space="preserve"
     style="font-style:normal;font-weight:normal;font-size:40px;line-height:125%;font-family:sans-serif;letter-spacing:0px;word-spacing:0px;fill:#ffffff;fill-opacity:1;stroke:none;stroke-width:1px;stroke-linecap:butt;stroke-linejoin:miter;stroke-opacity:1"
     x="117.85113"
     y="105.36133"
     id="text3721"
     sodipodi:linespacing="125%"><tspan
       sodipodi:role="line"
       id="tspan3723"
       x="117.85113"
       y="105.36133"
       style="font-style:normal;font-variant:normal;font-weight:normal;font-stretch:normal;font-size:30px;font-family:'Press Start';-inkscape-font-specification:'Press Start';fill:#ffffff">Cattodon</tspan></text>
  <path
     style="fill:#ffffff"
     d="m 38.33288,96.030518 c -2.433664,-0.645522 -4.778529,-2.98993 -4.778529,-4.777596 0,-4.234345 9.079615,-6.622057 14.325054,-3.767132 3.373421,1.836047 4.37722,4.319207 2.639197,6.528746 -1.742431,2.215142 -7.711742,3.202693 -12.185722,2.015982 z"
     id="path3744"
     inkscape:connector-curvature="0" />
  <path
     style="fill:#ffffff"
     d="m 72.097136,96.144735 c -2.321881,-0.55324 -4.338521,-1.966953 -5.277402,-3.699585 l -0.884661,-1.632573 0.923244,-1.236586 c 0.507785,-0.680123 1.910296,-1.744209 3.11669,-2.364636 3.009508,-1.547737 8.839236,-1.620849 11.611378,-0.145622 2.082933,1.108457 3.304633,2.713507 3.304633,4.341577 0,1.571903 -2.312877,4.021249 -4.382813,4.641417 -1.9175,0.574497 -6.197857,0.623355 -8.411069,0.09601 z"
     id="path3746"
     inkscape:connector-curvature="0" />
  <path
     style="fill:#ffffff"
     d="M 70.588656,82.077436 C 69.965291,81.740401 69.18291,80.955744 68.850032,80.333755 68.325328,79.353336 68.34563,79.04898 69.00262,78.046286 c 2.140735,-3.267174 6.826617,-1.968183 5.92031,1.641192 -0.602881,2.40098 -2.440141,3.414062 -4.334274,2.389958 z"
     id="path3748"
     inkscape:connector-curvature="0" />
  <path
     style="fill:#ffffff"
     d="m 57.614191,71.886191 c -2.739674,-2.886083 -1.336899,-6.115975 2.656231,-6.115975 1.651082,0 2.300306,0.753109 2.300306,2.668388 0,1.986471 -0.91947,3.347629 -2.674661,3.959491 -1.163236,0.405507 -1.478044,0.334884 -2.281876,-0.511904 z"
     id="path3750"
     inkscape:connector-curvature="0" />
  <path
     style="fill:#ffffff"
     d=""
     id="path3752"
     inkscape:connector-curvature="0" />
  <path
     style="fill:#ffffff"
     d="m 61.085857,118.1113 c -0.654238,-0.65243 -1.455206,-0.75907 -4.85882,-0.64689 -4.665747,0.15377 -6.343747,-0.34872 -7.292738,-2.18386 -0.786576,-1.52107 -0.846814,-5.25892 -0.112314,-6.96918 0.871208,-2.02857 2.156753,-3.70385 2.842198,-3.70385 0.897131,0 0.795452,1.02338 -0.283344,2.8518 -0.507405,0.85999 -1.035087,2.65394 -1.172625,3.98656 -0.312813,3.03086 0.683376,4.32178 3.33507,4.32178 2.174992,0 3.5338,-0.97931 4.415177,-3.18209 0.388528,-0.97103 0.932363,-1.69146 1.208522,-1.60096 0.276159,0.0905 0.749845,1.15348 1.052636,2.36219 0.30279,1.20872 0.893612,2.44877 1.312937,2.75567 1.271641,0.93071 3.011296,0.6565 4.248152,-0.66961 2.585412,-2.77199 2.838737,-5.09584 0.807672,-7.40909 -1.569498,-1.78756 -1.636486,-2.07703 -0.480656,-2.07703 1.382056,0 3.545161,2.12606 3.857607,3.79154 0.558853,2.97894 -4.064621,9.15423 -6.853825,9.15423 -0.68325,0 -1.594792,-0.35155 -2.025649,-0.78121 z"
     id="path3754"
     inkscape:connector-curvature="0" />
</svg>
