<?xml version="1.0" encoding="UTF-8" standalone="no"?>
<!-- Created with Inkscape (http://www.inkscape.org/) -->

<svg
   xmlns:dc="http://purl.org/dc/elements/1.1/"
   xmlns:cc="http://creativecommons.org/ns#"
   xmlns:rdf="http://www.w3.org/1999/02/22-rdf-syntax-ns#"
   xmlns:svg="http://www.w3.org/2000/svg"
   xmlns="http://www.w3.org/2000/svg"
   xmlns:sodipodi="http://sodipodi.sourceforge.net/DTD/sodipodi-0.dtd"
   xmlns:inkscape="http://www.inkscape.org/namespaces/inkscape"
   id="svg3693"
   version="1.1"
   inkscape:version="0.92.2 (5c3e80d, 2017-08-06)"
   width="713.35876"
   height="175.8678"
   viewBox="0 0 713.35878 175.8678"
   sodipodi:docname="logo_full-4f3cf2e7f3b9bd518b64f2d2378d4340.svg">
  <metadata
     id="metadata3699">
    <rdf:RDF>
      <cc:Work
         rdf:about="">
        <dc:format>image/svg+xml</dc:format>
        <dc:type
           rdf:resource="http://purl.org/dc/dcmitype/StillImage" />
        <dc:title />
      </cc:Work>
    </rdf:RDF>
  </metadata>
  <defs
     id="defs3697" />
  <sodipodi:namedview
     pagecolor="#ffffff"
     bordercolor="#666666"
     borderopacity="1"
     objecttolerance="10"
     gridtolerance="10"
     guidetolerance="10"
     inkscape:pageopacity="0"
     inkscape:pageshadow="2"
     inkscape:window-width="2560"
     inkscape:window-height="1537"
     id="namedview3695"
     showgrid="false"
     inkscape:zoom="2.2401143"
     inkscape:cx="272.19179"
     inkscape:cy="51.019105"
     inkscape:window-x="1192"
     inkscape:window-y="1072"
     inkscape:window-maximized="1"
     inkscape:current-layer="svg3693"
     inkscape:pagecheckerboard="true">
    <inkscape:grid
       type="xygrid"
       id="grid44" />
  </sodipodi:namedview>
  <path
     style="fill:#ffffff;stroke-width:2.41101432"
     d="m 64.966893,74.775409 c -1.537156,-0.794505 -3.466432,-2.644205 -4.287283,-4.110455 -1.293876,-2.311178 -1.243809,-3.028656 0.376269,-5.392344 5.278855,-7.701862 16.833802,-4.639682 14.598931,3.868852 -1.486654,5.659937 -6.017157,8.048114 -10.687917,5.633947 z"
     id="path3748-9"
     inkscape:connector-curvature="0" />
  <text
     xml:space="preserve"
     style="font-style:normal;font-weight:normal;font-size:44.01910019px;line-height:0%;font-family:sans-serif;letter-spacing:0px;word-spacing:0px;fill:#ffffff;fill-opacity:1;stroke:none;stroke-width:3.66825819px;stroke-linecap:butt;stroke-linejoin:miter;stroke-opacity:1"
     x="217.714"
     y="128.96001"
     id="text3721"><tspan
       sodipodi:role="line"
       id="tspan3723"
       x="217.714"
       y="128.96001"
       style="font-style:normal;font-variant:normal;font-weight:normal;font-stretch:normal;font-size:110.04775238px;line-height:1.25;font-family:'Press Start';-inkscape-font-specification:'Press Start';fill:#ffffff;stroke-width:3.66825819px">Cattodon</tspan></text>
  <path
     style="fill:#ffffff"
     d=""
     id="path3752"
     inkscape:connector-curvature="0" />
  <path
     style="fill:#000000;stroke-width:1.64894259"
     d="m 29.463976,174.66677 c 0,-2.37507 8.921967,-20.72224 12.632945,-25.9785 l 3.868849,-5.47981 -5.930637,-4.82608 C 36.773277,135.72805 31.683882,131.81433 28.725366,129.68523 11.293249,117.14028 5.3016019,107.19596 0.01021101,82.026858 -0.22812716,80.89321 3.7354692,78.96337 8.8181861,77.738324 19.227423,75.229473 17.274482,79.327342 32.772019,27.475805 36.65701,14.477446 40.675615,3.0024543 41.702247,1.9758209 c 1.114685,-1.11468681 4.06494,2.4716166 7.323894,8.9028501 5.057472,9.980448 5.862123,10.653339 10.982881,9.184518 7.15313,-2.051785 43.053328,-2.054343 50.194818,-0.0035 4.72269,1.356174 7.35841,0.0405 18.50908,-9.239182 L 141.71512,2.024148e-7 143.14821,7.0040438 c 0.78821,3.8521522 1.98884,15.8155102 2.66809,26.5851662 0.67925,10.769656 1.76129,25.483199 2.40454,32.696766 l 1.16953,13.115572 7.93128,-1.268263 c 4.7003,-0.751606 8.47598,-0.386917 9.2684,0.895219 1.86286,3.014177 -3.07385,22.533586 -7.27456,28.763126 -1.91111,2.83412 -6.10421,9.15178 -9.31798,14.03924 -3.21379,4.88747 -8.46031,11.08842 -11.65893,13.77989 -6.77414,5.70005 -7.72368,15.15395 -2.72392,27.11999 5.76643,13.80106 8.6081,13.07974 -51.52946,13.07974 -30.041673,0 -54.621224,-0.51465 -54.621224,-1.14367 z m 71.991634,-45.51078 c 2.34957,-2.98701 4.27196,-6.97539 4.27196,-8.86307 0,-4.16087 -3.91335,-8.37898 -7.773592,-8.37898 -2.220004,0 -2.131522,0.69524 0.412236,3.239 3.973096,3.97307 4.090366,7.17585 0.445297,12.16078 -3.473828,4.75072 -9.573365,2.85968 -9.573365,-2.96803 0,-5.39013 -3.315067,-5.43557 -4.719587,-0.0646 -0.72847,2.78565 -2.81148,4.12236 -6.423934,4.12236 -4.480919,-5e-5 -5.345905,-0.93386 -5.345905,-5.77135 0,-3.17421 1.097569,-6.86887 2.43905,-8.21036 1.341497,-1.34148 1.729411,-3.14871 0.862067,-4.01605 -2.397909,-2.39791 -7.423474,5.69594 -7.423474,11.95576 0,7.61582 4.675,10.9485 13.377327,9.53629 3.937411,-0.63895 7.694412,-0.29527 8.34891,0.76373 2.147962,3.47549 6.756262,2.02054 11.10301,-3.50544 z M 71.548306,94.772984 c 9.389063,-6.865451 -3.135596,-18.074099 -16.431301,-14.7048 -10.276177,2.604114 -13.354835,7.525103 -8.242206,13.174501 4.496683,4.968787 18.761174,5.853499 24.673507,1.530299 z M 127.22271,94.2467 c 9.7403,-9.740294 -7.46143,-19.739144 -22.31536,-12.971244 -7.015603,3.196526 -8.110864,7.279155 -3.25539,12.134631 5.11445,5.114446 20.78037,5.626997 25.57075,0.836613 z M 72.726937,71.747216 c 3.424837,-4.126683 1.143509,-9.301552 -4.100574,-9.301552 -4.676335,0 -7.288062,4.454546 -5.438163,9.275302 1.518412,3.956904 6.265735,3.969968 9.538737,0.02623 z m 40.874613,-2.632992 c 0.8454,-5.926532 -4.98244,-8.382278 -9.40263,-3.962094 -2.73685,2.736841 -2.82573,3.805702 -0.54503,6.55379 3.7092,4.469309 9.14235,3.053792 9.94766,-2.591696 z M 90.100147,57.072196 c 1.793192,-0.688112 3.260355,-3.470703 3.260355,-6.183535 0,-3.828325 -1.104099,-4.932423 -4.932432,-4.932423 -5.685604,0 -8.599269,5.388449 -5.15664,9.536553 2.707861,3.262789 2.541911,3.224406 6.828717,1.579405 z"
     id="path3703"
     inkscape:connector-curvature="0" />
  <flowRoot
     xml:space="preserve"
     id="flowRoot3707"
     style="font-style:normal;font-weight:normal;line-height:0.01%;font-family:sans-serif;letter-spacing:0px;word-spacing:0px;fill:#000000;fill-opacity:1;stroke:none;stroke-width:1px;stroke-linecap:butt;stroke-linejoin:miter;stroke-opacity:1"
     transform="matrix(1.6489426,0,0,1.6489426,-10.28688,-62.108244)"><flowRegion
       id="flowRegion3709"><rect
         id="rect3711"
         width="262.93301"
         height="52.229477"
         x="96.870056"
         y="59.381535" /></flowRegion><flowPara
       id="flowPara3713"
       style="font-size:40px;line-height:1.25"> </flowPara></flowRoot>  <path
     style="fill:#ffffff;stroke-width:1.64894259"
     d="m 52.921839,96.240568 c -4.012972,-1.064429 -7.87952,-4.930223 -7.87952,-7.877982 0,-6.982191 14.971764,-10.919391 23.621192,-6.211784 5.562577,3.027536 7.217784,7.122124 4.351884,10.765527 -2.873169,3.652642 -12.71622,5.281057 -20.093556,3.324239 z"
     id="path3744"
     inkscape:connector-curvature="0" />
  <path
     style="fill:#ffffff;stroke-width:1.64894259"
     d="m 108.59716,96.428905 c -3.82865,-0.912261 -7.15397,-3.243392 -8.702134,-6.100403 l -1.458755,-2.692019 1.522376,-2.03906 c 0.837313,-1.121483 3.149973,-2.8761 5.139243,-3.899149 4.96251,-2.552129 14.57539,-2.672687 19.1465,-0.240122 3.43463,1.827782 5.44915,4.474417 5.44915,7.159011 0,2.591978 -3.81381,6.630809 -7.22701,7.653431 -3.16185,0.947312 -10.21991,1.027876 -13.86937,0.158315 z"
     id="path3746"
     inkscape:connector-curvature="0" />
  <path
     style="fill:#ffffff;stroke-width:1.64894259"
     d="m 106.10976,73.232737 c -1.02789,-0.555752 -2.31799,-1.849606 -2.86689,-2.87523 -0.86521,-1.616655 -0.83173,-2.11852 0.25161,-3.771905 3.52995,-5.387383 11.2567,-3.245421 9.76225,2.706231 -0.99412,3.959078 -4.02365,5.629592 -7.14697,3.940904 z"
     id="path3748"
     inkscape:connector-curvature="0" />
  <path
     style="fill:#ffffff;stroke-width:1.64894259"
     d="m 84.715614,56.427959 c -4.517565,-4.758986 -2.20447,-10.084892 4.379972,-10.084892 2.72254,0 3.793073,1.241833 3.793073,4.400019 0,3.275576 -1.516153,5.520048 -4.410363,6.528973 -1.918109,0.668658 -2.437209,0.552204 -3.762682,-0.8441 z"
     id="path3750"
     inkscape:connector-curvature="0" />
  <path
     style="fill:#ffffff;stroke-width:1.64894259"
     d="m 90.440192,132.65051 c -1.078801,-1.07582 -2.399551,-1.25166 -8.011915,-1.06668 -7.693549,0.25355 -10.460475,-0.57502 -12.025307,-3.60106 -1.297018,-2.50816 -1.396347,-8.67166 -0.185199,-11.49178 1.436572,-3.345 3.556362,-6.10744 4.686621,-6.10744 1.479318,0 1.311655,1.6875 -0.467218,4.70246 -0.836681,1.41807 -1.706799,4.37619 -1.933591,6.57361 -0.515811,4.99771 1.126848,7.12636 5.499339,7.12636 3.586437,0 5.827033,-1.61482 7.280373,-5.24708 0.640661,-1.60117 1.537413,-2.78912 1.992784,-2.63989 0.45537,0.14923 1.236451,1.90202 1.735736,3.89511 0.499283,1.99311 1.473515,4.03788 2.164958,4.54394 2.096863,1.53469 4.965454,1.08254 7.004959,-1.10414 4.263198,-4.57086 4.680918,-8.40275 1.331804,-12.21717 -2.588012,-2.94758 -2.698471,-3.4249 -0.792574,-3.4249 2.278928,0 5.845768,3.50575 6.360968,6.25203 0.92152,4.9121 -6.702322,15.0948 -11.301559,15.0948 -1.12664,0 -2.629721,-0.57969 -3.340179,-1.28817 z"
     id="path3754"
     inkscape:connector-curvature="0" />
</svg>
